<?xml version="1.0" encoding="utf-8"?>
<!-- Generator: Adobe Illustrator 23.0.3, SVG Export Plug-In . SVG Version: 6.00 Build 0)  -->
<svg version="1.1" xmlns="http://www.w3.org/2000/svg" xmlns:xlink="http://www.w3.org/1999/xlink" x="0px" y="0px"
	 viewBox="0 0 90 90" style="enable-background:new 0 0 90 90;" xml:space="preserve">
<style type="text/css">
	.st0{fill:#FFFFFF;}
</style>
<g id="レイヤー_1">
	<g>
		<path class="st0" d="M45.1,4l35.5,20.5v41L45.1,86L9.6,65.5l0-41L45.1,4 M45.1,1.5L7.4,23.3l0,43.5l37.7,21.7l37.7-21.7V23.3
			L45.1,1.5L45.1,1.5z"/>
		<path class="st0" d="M45.1,8.2l31.8,18.4v36.8L45.1,81.8L13.3,63.4l0-36.8L45.1,8.2 M45.1,7.6L12.7,26.3l0,37.4l32.4,18.7
			l32.4-18.7V26.3L45.1,7.6L45.1,7.6z"/>
	</g>
	<g>
		<g>
			<path class="st0" d="M52.3,31.1c0,0,0.5-2,1.8-1.4c1.3,0.5,3.5,0.7,4.2-1c0.7-1.7-0.5-3.2-1.9-2.7c-1.4,0.5-1.6,1.7-1.1,2
				c0.5,0.4-1.7-0.2-1.1-1.9c0.5-1.7,2.8-2,4.1-1.1c1.4,0.9,2.1,3.5,0.6,4.9c-1.5,1.5-3.5,1.2-4.1,1c-0.6-0.3-0.9-0.2-0.9,0.2
				c0,0.4-0.2,1.1-1,0.9C52,31.8,52.2,31.2,52.3,31.1z"/>
			<path class="st0" d="M53.8,22.8H33.8c0,0-0.4,0.2-0.2,1.1c0.2,0.9,0.5,9,5.4,11.1h11.6c0,0,3.5-5.9,3.9-11.1
				C54.5,24,54.7,22.8,53.8,22.8z"/>
		</g>
		<path class="st0" d="M45.1,35.7H28.3c1.6,2.2,9.1,2.4,9.1,2.4l0.3,0.3h7.4h7.4l0.3-0.3c0,0,7.5-0.2,9.1-2.4H45.1z M41.1,37.4
			l-0.2-0.2c0,0,15.2-0.1,18.2-0.5c0.2,0,0.3,0,0.3,0c-0.1,0-0.2,0-0.3,0C57.7,37,51.8,37.9,41.1,37.4z"/>
	</g>
	<g>
		<path class="st0" d="M48.3,13.2c0,0-3.7-0.9-5.5,1c-1.7,1.9-3.1,4.8-4.6,4.3c0,0,2.4,1.3,4.4-0.8C44.6,15.6,45.7,13.1,48.3,13.2z"
			/>
		<path class="st0" d="M49,17.2c0,0-2.7-0.7-4,0.7c-1.3,1.4-2.3,3.5-3.4,3.1c0,0,1.7,0.9,3.2-0.6C46.2,18.9,47.1,17.1,49,17.2z"/>
	</g>
	<g>
		<path class="st0" d="M49.5,73.4c0.9-1.7,1.5-3.8-0.4-5c0,0-1.8-1.2-3.8,1c-1.5,1.7-2.3,3.7-1,5.2C45.8,76.5,48.5,75.1,49.5,73.4z
			 M46.5,73.2C45.2,74,44.9,75,44.9,75c-0.2-1.2,0.3-1.9,2.1-3.3c1.8-1.4,1.9-3.1,1.9-3.1C49.9,71,47.8,72.3,46.5,73.2z"/>
		<path class="st0" d="M39.4,72c1.4,0.3,2.9,0.3,3.4-1.3c0,0,0.5-1.5-1.5-2.5c-1.5-0.7-3-0.9-3.9,0.3C36.5,70,38.1,71.7,39.4,72z
			 M39,69.9c-0.9-0.7-1.6-0.7-1.6-0.7c0.8-0.4,1.4-0.1,2.7,0.8c1.3,1,2.5,0.7,2.5,0.7C41.2,71.8,39.9,70.6,39,69.9z"/>
	</g>
</g>
<g id="レイヤー_3">
	<g>
		<path class="st0" d="M24.4,47.8c0,0.7-1.6,2.5-5.1,2.7c-0.9,0.1-2.2-0.3-2.2-1.4c0-0.4-0.1-0.5,1.4-2.5c-0.4,0-1.2-0.1-1.2-0.5
			c0-0.6,1.8-0.6,2.2-0.7c0.8-0.8,1.7-1.9,3-1.9c-0.1,0.2-0.2,0.4-1.3,1.7c2.9-0.4,3.6-1.3,3.6-1.6c0-0.3-0.4-0.7-1.9-0.6
			c-0.3,0-1.7,0.2-3.7,0.9c0.1,0,0.2,0.1,0.2,0.2c0,0.2-0.3,0.3-0.5,0.3c-0.8,0.1-1.1,0.2-1.8,0.5c-0.1,0-0.3,0.1-0.4,0.1
			c-0.2,0-0.3-0.1-0.3-0.4c0-0.1,0.2-0.6,0.6-1.1c0.3-0.4,0.6-0.9,1.1-1c1.3-0.5,3.7-1,5-1c2.2,0,2.8,0.9,2.8,1.6
			c0,2.1-3.9,2.6-5.5,2.9l-0.3,0.2C21.2,46.2,24.4,46.5,24.4,47.8z M19,47.5c-0.2,0.2-0.5,0.5-0.5,0.7c0,0.6,1,0.7,1.4,0.7
			c1.2,0,3-0.9,3-1.4c0-0.7-2.7-0.9-3.2-0.9L19,47.5z"/>
		<path class="st0" d="M27.2,49.4c-0.2,0.2-1.1,0.9-1.4,0.9c-0.4,0-1.1-0.9-1.1-1.5c-0.1-1.6,3.3-3.3,4.8-3.3c0.6,0,0.8,0.5,0.8,0.6
			c0,0.2-0.3,0.3-0.5,0.3c0.2,0.1,0.4,0.2,0.4,0.5c0,0.4-1.1,1.3-1.1,1.9c0,0.2,0.2,0.3,0.4,0.3c0.5,0,1.3-0.7,1.8-1l0.1,0.5
			c-0.6,0.6-2.3,2-2.9,2c-0.4,0-0.6-0.3-0.6-0.7c0-0.4,0.3-1.1,0.5-1.5l0,0L27.2,49.4z M25.6,49.1c0,0.1,0.1,0.3,0.3,0.3
			c0.3-0.1,0.7,0,3.2-2.6l0,0C26,47.7,25.6,48.4,25.6,49.1z"/>
		<path class="st0" d="M35.9,48.1l0.1,0.5c-0.8,0.8-2.2,2-3.2,1.9c-0.9,0-1.8-0.5-2.1-1.5c-0.1,0.1-0.2,0.2-0.3,0.2
			c-0.1,0-0.2-0.1-0.2-0.2c0-0.2,0.2-0.4,0.3-0.5l2.8-2.6c0-0.4,0.3-0.8,0.7-0.8c0.4,0,0.5,0.1,0.5,0.5c0.1,0.5,0.2,0.9,0.2,1.5
			c0,1.1-0.9,1.9-1.7,2.4c0.8,0.1,1.3-0.2,2-0.7L35.9,48.1z M31.5,48.3c0.5,0,0.8,0.4,1,0.8c0.8-0.5,1-0.7,1-1.5
			c0-0.3-0.1-0.6-0.2-1.1L31.5,48.3z"/>
		<path class="st0" d="M40.9,48.4c-0.8,0.9-2.2,2.1-3.5,2.1c-0.9,0-1.4-0.8-1.4-1.7c-0.1-1.7,1.8-3.4,3.5-3.4c0.4,0,0.9,0.1,0.9,0.6
			c0,0.6-0.6,1.6-3.1,2.4l0,0.3c0,0.5,0.4,0.7,0.8,0.7c0.9,0,2-0.9,2.7-1.5L40.9,48.4z M39.3,46.3c0-0.1-0.1-0.2-0.2-0.1
			c-0.6,0.2-1.4,0.8-1.8,1.7C38.5,47.4,39.3,46.5,39.3,46.3z"/>
		<path class="st0" d="M48,45.3c0.1-0.1,0.5-0.5,0.7-0.5c0.1,0,0.2,0.1,0.1,0.3l0,0c1.3-1.1,2.1-2.3,2.1-2.7c0-0.2-0.1-0.3-0.4-0.3
			c-0.2,0.1-1.7,0.1-4.6,3.5c-0.9,1.1-1.6,2.5-1.6,3.5c0,0.9,0.4,1.5,1.4,1.5c1.6,0,4.5-2.1,5.7-3.2c0,0.7-0.2,0.8-0.7,1.3
			c-2.5,2.4-4.7,3.2-5.9,3.2c-1.4,0-2.5-0.9-2.5-2.4c0-1.9,1.6-4,2.9-5.2c1.1-1.1,3.8-3.1,5.4-3.1c0.8,0,1.3,0.4,1.3,1.2
			c0.1,1.8-3.3,5.1-4.9,5.3c-0.4,0.1-0.7-0.2-0.7-0.6c0-0.4,0.4-0.8,0.6-1L48,45.3z"/>
		<path class="st0" d="M53.9,49.4c-0.2,0.2-1.1,0.9-1.4,0.9c-0.4,0-1.1-0.9-1.1-1.5c-0.1-1.6,3.3-3.3,4.8-3.3c0.6,0,0.8,0.5,0.8,0.6
			c0,0.2-0.3,0.3-0.5,0.3c0.2,0.1,0.4,0.2,0.4,0.5c0,0.4-1.1,1.3-1.1,1.9c0,0.2,0.2,0.3,0.4,0.3c0.5,0,1.3-0.7,1.8-1l0.1,0.5
			c-0.6,0.6-2.3,2-2.9,2c-0.4,0-0.6-0.3-0.6-0.7c0-0.4,0.3-1.1,0.5-1.5l0,0L53.9,49.4z M52.3,49.1c0,0.1,0.1,0.3,0.3,0.3
			c0.3-0.1,0.7,0,3.2-2.6l0,0C52.7,47.7,52.3,48.4,52.3,49.1z"/>
		<path class="st0" d="M62.5,49.5c-0.3,0.3-0.8,0.8-1.2,0.8c-0.3,0-0.6-0.2-0.6-0.5c0-0.4,0.3-1,1.1-2.3c0,0,0.1-0.1,0.1-0.2
			c0-0.1,0-0.1-0.1-0.1c-0.1,0-0.4,0.3-0.5,0.4c-0.7,0.7-1.4,1.5-2,2.2c-0.1,0.2-0.3,0.4-0.6,0.4c-0.6,0-0.8-1-0.8-1.5
			c0-1.3,1.4-3,2.2-2.9c0.2,0,0.6,0,0.6,0.3c0,0.3-0.4,0.7-0.5,0.8c-0.2,0.3-0.5,0.5-0.7,0.8c-0.1,0.2-0.4,0.4-0.4,0.7
			c0,0,0,0.1,0.1,0.1c0.1,0,0.2-0.2,0.3-0.2c0.6-0.7,3-3,3.8-3c0.4,0,0.5,0.3,0.5,0.6c0,0.6-0.9,1.6-1.2,2.1l0,0l2.9-2.3
			c0.1-0.1,0.5-0.4,0.6-0.4c0.1,0,0.2,0.3,0.3,0.4c0.1,0.1,0.2,0.3,0.2,0.5c0,0.2-0.3,0.5-0.4,0.7c-1,1.1-1.1,1.3-1.1,1.6
			c0,0.2,0.2,0.4,0.3,0.3c0.3-0.1,0.4-0.1,2-1.2l0.1,0.6c-0.6,0.5-2.5,2-3.2,2c-0.4,0-0.7-0.4-0.7-0.8c0-0.7,0.6-1.6,1-2.1l0,0
			L62.5,49.5z"/>
		<path class="st0" d="M67,52.5c-0.1,0.2-0.3,0.5-0.6,0.5c-0.3,0-0.4-0.4-0.4-0.6c0-0.6,0.3-1.3,0.8-2.1c0.6-0.8,1.2-1.9,2.1-3.3
			l0,0l-2.1,2l-0.1-0.6l3.4-3.7c0.3-0.3,0.5-0.7,1-0.7c0.2,0,0.6,0.1,0.6,0.3c0,0.3-0.7,0.9-0.9,1.1c-0.4,0.5-0.8,0.9-1.1,1.5l0,0
			c0.6-0.4,1.9-1.3,2.6-1.3c0.4,0,0.5,0.3,0.5,0.6c0,0.7-0.7,1.6-2.1,2.9c1.1,0.1,1.4-0.1,2.8-1.3l0.1,0.6c-1,0.9-2.1,1.9-3.5,1.9
			c-0.4,0-0.6-0.1-0.9-0.3c-0.2,0-0.4,0.1-0.6,0.1c-0.2,0-0.4,0-0.5-0.1L67,52.5z M71.1,47.9c0.1-0.2,0.3-0.4,0.3-0.6
			c0-0.1,0-0.2-0.1-0.2c-0.2,0-0.8,0.4-1,0.5c-0.5,0.4-0.8,0.8-1.2,1.3c0.4,0,0.7,0,1.1,0.1L71.1,47.9z"/>
	</g>
	<g>
		<path class="st0" d="M53,57.1c-0.1-0.1-0.3-0.2-0.4-0.2c-0.2,0-0.4,0.1-0.5,0.3c-0.1,0.2-0.2,0.4-0.2,0.8c0,0.5,0.1,0.8,0.3,1.1
			c0.1,0.2,0.3,0.3,0.5,0.3c0.1,0,0.2,0,0.3-0.1c0.1,0,0.3-0.1,0.4-0.2c0-0.3,0.1-0.5,0.1-0.7c0-0.2,0-0.4-0.1-0.7
			C53.2,57.4,53.1,57.3,53,57.1z"/>
		<path class="st0" d="M56.3,57.1c-0.1-0.1-0.3-0.2-0.4-0.2c-0.2,0-0.4,0.1-0.5,0.3c-0.1,0.2-0.2,0.4-0.2,0.8c0,0.5,0.1,0.8,0.3,1.1
			c0.1,0.2,0.3,0.3,0.5,0.3c0.1,0,0.2,0,0.3-0.1c0.1,0,0.3-0.1,0.4-0.2c0-0.3,0.1-0.5,0.1-0.7c0-0.2,0-0.4-0.1-0.7
			C56.5,57.4,56.4,57.3,56.3,57.1z"/>
		<path class="st0" d="M45.6,58.5c-0.1-0.1-0.2-0.1-0.3-0.1c-0.2,0-0.3,0.1-0.5,0.2c-0.1,0.1-0.2,0.3-0.2,0.6h1.4
			c0-0.2,0-0.3-0.1-0.4C45.8,58.6,45.7,58.5,45.6,58.5z"/>
		<path class="st0" d="M17.3,54.8v8.3h55.6v-8.3H17.3z M36.5,56.7c0.1-0.1,0.1-0.1,0.2-0.1c0.1,0,0.2,0,0.2,0.1s0.1,0.1,0.1,0.2
			c0,0.1,0,0.2-0.1,0.2c-0.1,0.1-0.1,0.1-0.2,0.1s-0.2,0-0.2-0.1c-0.1-0.1-0.1-0.1-0.1-0.2C36.4,56.8,36.5,56.8,36.5,56.7z
			 M32.1,60.9c-0.3,0.2-0.6,0.4-1,0.4c-0.1,0-0.2,0-0.4,0c-0.1,0-0.2,0-0.4-0.1C30.2,61,30,61,30,61c-0.1,0-0.1,0-0.1,0
			c0,0-0.1,0.1-0.1,0.2h-0.1v-1.5h0.1c0.1,0.3,0.1,0.5,0.2,0.7c0.1,0.2,0.2,0.3,0.4,0.4c0.2,0.1,0.4,0.2,0.6,0.2
			c0.3,0,0.5-0.1,0.6-0.2s0.2-0.3,0.2-0.5c0-0.1,0-0.2-0.1-0.3c-0.1-0.1-0.2-0.2-0.3-0.3c-0.1-0.1-0.3-0.2-0.7-0.4s-0.6-0.4-0.8-0.5
			c-0.2-0.1-0.3-0.3-0.4-0.4s-0.1-0.3-0.1-0.5c0-0.3,0.1-0.6,0.4-0.8c0.2-0.2,0.5-0.3,0.9-0.3c0.2,0,0.5,0.1,0.7,0.2
			c0.1,0.1,0.2,0.1,0.3,0.1c0.1,0,0.1,0,0.1,0c0,0,0.1-0.1,0.1-0.2h0.1v1.5h-0.1c0-0.3-0.1-0.5-0.2-0.7c-0.1-0.2-0.2-0.3-0.4-0.4
			S31.1,57,30.9,57c-0.2,0-0.4,0.1-0.6,0.2s-0.2,0.3-0.2,0.5c0,0.1,0,0.3,0.1,0.4c0.1,0.2,0.4,0.4,0.9,0.6c0.4,0.2,0.7,0.4,0.8,0.5
			c0.1,0.1,0.3,0.3,0.3,0.4c0.1,0.2,0.1,0.3,0.1,0.5C32.5,60.4,32.4,60.7,32.1,60.9z M35.1,60.9c-0.2,0.2-0.5,0.3-0.8,0.3
			c-0.3,0-0.6-0.1-0.9-0.4c-0.2-0.3-0.4-0.7-0.4-1.1c0-0.5,0.1-0.8,0.4-1.1s0.6-0.4,1-0.4c0.3,0,0.5,0.1,0.7,0.2
			c0.2,0.2,0.3,0.3,0.3,0.5c0,0.1,0,0.1-0.1,0.2c-0.1,0.1-0.1,0.1-0.2,0.1c-0.1,0-0.2,0-0.3-0.1c0,0-0.1-0.1-0.1-0.3
			c0-0.1-0.1-0.2-0.1-0.3c-0.1-0.1-0.2-0.1-0.3-0.1c-0.2,0-0.4,0.1-0.5,0.2c-0.2,0.2-0.3,0.5-0.3,0.8c0,0.4,0.1,0.7,0.3,0.9
			c0.2,0.3,0.4,0.4,0.7,0.4c0.2,0,0.4-0.1,0.6-0.2c0.1-0.1,0.2-0.3,0.3-0.5l0.1,0C35.5,60.4,35.3,60.7,35.1,60.9z M37.5,61.2H36V61
			c0.1,0,0.2,0,0.3,0c0,0,0.1-0.1,0.1-0.1c0-0.1,0-0.2,0-0.4v-1.1c0-0.3,0-0.5,0-0.6c0-0.1,0-0.1-0.1-0.1c0,0-0.1,0-0.1,0
			c-0.1,0-0.1,0-0.2,0l0-0.1l0.9-0.4H37v2.4c0,0.2,0,0.3,0,0.4c0,0.1,0.1,0.1,0.1,0.1s0.1,0,0.3,0V61.2z M40.9,61.2h-1.5V61h0.1
			c0.1,0,0.2,0,0.3-0.1c0.1,0,0.1-0.1,0.1-0.2c0,0,0-0.1,0-0.3v-1.2c0-0.3,0-0.5-0.1-0.6c-0.1-0.1-0.2-0.2-0.4-0.2
			c-0.3,0-0.5,0.1-0.8,0.4v1.6c0,0.2,0,0.3,0,0.4c0,0.1,0.1,0.1,0.1,0.1c0.1,0,0.2,0,0.3,0v0.1h-1.5V61h0.1c0.1,0,0.3,0,0.3-0.1
			c0.1-0.1,0.1-0.2,0.1-0.4v-1.1c0-0.4,0-0.6,0-0.6s0-0.1-0.1-0.2c0,0-0.1,0-0.1,0c-0.1,0-0.1,0-0.2,0l0-0.1l0.9-0.4h0.1v0.6
			c0.3-0.4,0.7-0.6,1-0.6c0.2,0,0.3,0,0.4,0.1c0.1,0.1,0.2,0.2,0.3,0.4c0,0.1,0.1,0.3,0.1,0.6v1.3c0,0.2,0,0.3,0,0.4
			c0,0.1,0.1,0.1,0.1,0.1s0.1,0,0.3,0V61.2z M43.1,60.9c-0.2,0.2-0.5,0.3-0.8,0.3c-0.3,0-0.6-0.1-0.9-0.4c-0.2-0.3-0.4-0.7-0.4-1.1
			c0-0.5,0.1-0.8,0.4-1.1s0.6-0.4,1-0.4c0.3,0,0.5,0.1,0.7,0.2c0.2,0.2,0.3,0.3,0.3,0.5c0,0.1,0,0.1-0.1,0.2
			c-0.1,0.1-0.1,0.1-0.2,0.1c-0.1,0-0.2,0-0.3-0.1c0,0-0.1-0.1-0.1-0.3c0-0.1-0.1-0.2-0.1-0.3c-0.1-0.1-0.2-0.1-0.3-0.1
			c-0.2,0-0.4,0.1-0.5,0.2c-0.2,0.2-0.3,0.5-0.3,0.8c0,0.4,0.1,0.7,0.3,0.9c0.2,0.3,0.4,0.4,0.7,0.4c0.2,0,0.4-0.1,0.6-0.2
			c0.1-0.1,0.2-0.3,0.3-0.5l0.1,0C43.5,60.4,43.4,60.7,43.1,60.9z M44.8,60.4c0.2,0.2,0.5,0.4,0.8,0.4c0.2,0,0.4-0.1,0.5-0.2
			c0.1-0.1,0.3-0.3,0.4-0.5l0.1,0.1c0,0.3-0.2,0.6-0.4,0.8c-0.2,0.2-0.5,0.4-0.8,0.4c-0.4,0-0.7-0.1-0.9-0.4
			c-0.3-0.3-0.4-0.6-0.4-1.1c0-0.5,0.1-0.9,0.4-1.2c0.3-0.3,0.6-0.4,1-0.4c0.3,0,0.6,0.1,0.8,0.3c0.2,0.2,0.3,0.5,0.3,0.9h-2
			C44.5,59.8,44.6,60.1,44.8,60.4z M50.2,61.2h-1.6V61c0.2,0,0.3,0,0.4-0.1c0.1,0,0.1-0.1,0.1-0.1c0-0.1,0-0.2,0-0.5V58
			c0-0.3,0-0.5,0-0.6c0-0.1,0-0.1-0.1-0.2c0,0-0.1,0-0.1,0c-0.1,0-0.2,0-0.3,0.1l0-0.1l1.1-0.5h0.1v3.7c0,0.2,0,0.4,0,0.5
			c0,0.1,0.1,0.1,0.1,0.1c0.1,0,0.2,0.1,0.4,0.1V61.2z M53.7,59.9c-0.2,0.4-0.6,0.8-1,1c-0.3,0.2-0.7,0.3-1.1,0.3h-0.2v-0.1
			c0.3,0,0.5-0.1,0.8-0.2c0.2-0.1,0.5-0.3,0.7-0.7c0.2-0.3,0.4-0.7,0.5-1c-0.3,0.2-0.6,0.3-0.9,0.3c-0.3,0-0.6-0.1-0.8-0.4
			s-0.3-0.6-0.3-0.9c0-0.4,0.1-0.7,0.3-1c0.3-0.4,0.6-0.5,1-0.5c0.4,0,0.7,0.1,0.9,0.4c0.3,0.4,0.5,0.8,0.5,1.4
			C54,59,53.9,59.5,53.7,59.9z M56.9,59.9c-0.2,0.4-0.6,0.8-1,1c-0.3,0.2-0.7,0.3-1.1,0.3h-0.2v-0.1c0.3,0,0.5-0.1,0.8-0.2
			c0.2-0.1,0.5-0.3,0.7-0.7c0.2-0.3,0.4-0.7,0.5-1c-0.3,0.2-0.6,0.3-0.9,0.3c-0.3,0-0.6-0.1-0.8-0.4s-0.3-0.6-0.3-0.9
			c0-0.4,0.1-0.7,0.3-1c0.3-0.4,0.6-0.5,1-0.5c0.4,0,0.7,0.1,0.9,0.4c0.3,0.4,0.5,0.8,0.5,1.4C57.3,59,57.2,59.5,56.9,59.9z
			 M60.6,56.9l-1.5,4.3h-0.4l1.3-3.9h-1.2c-0.2,0-0.4,0-0.5,0.1c-0.2,0.1-0.3,0.3-0.4,0.5l-0.1,0l0.4-1h2.3V56.9z"/>
	</g>
</g>
</svg>
